<svg xmlns="http://www.w3.org/2000/svg" width="420" height="240" viewBox="0 0 420 240" role="img" aria-label="Synthetic multiple CardMark markers">
  <rect width="420" height="240" fill="#ffffff"/>
  <g transform="translate(40 50)" fill="#000000" shape-rendering="crispEdges">
    <rect x="0" y="0" width="140" height="20"/><rect x="0" y="120" width="140" height="20"/><rect x="0" y="0" width="20" height="140"/><rect x="120" y="0" width="20" height="140"/>
    <rect x="20" y="20" width="20" height="20"/><rect x="100" y="20" width="20" height="20"/>
    <rect x="80" y="40" width="20" height="20"/>
    <rect x="40" y="60" width="20" height="20"/><rect x="60" y="60" width="20" height="20"/><rect x="80" y="60" width="20" height="20"/><rect x="100" y="60" width="20" height="20"/>
    <rect x="20" y="80" width="20" height="20"/><rect x="40" y="80" width="20" height="20"/><rect x="60" y="80" width="20" height="20"/><rect x="80" y="80" width="20" height="20"/>
  </g>
  <g transform="translate(240 50)" fill="#000000" shape-rendering="crispEdges">
    <rect x="0" y="0" width="140" height="20"/><rect x="0" y="120" width="140" height="20"/><rect x="0" y="0" width="20" height="140"/><rect x="120" y="0" width="20" height="140"/>
    <rect x="20" y="20" width="20" height="20"/><rect x="60" y="20" width="20" height="20"/><rect x="100" y="20" width="20" height="20"/>
    <rect x="20" y="40" width="20" height="20"/><rect x="60" y="40" width="20" height="20"/><rect x="100" y="40" width="20" height="20"/>
    <rect x="20" y="60" width="20" height="20"/><rect x="40" y="60" width="20" height="20"/><rect x="80" y="60" width="20" height="20"/>
    <rect x="20" y="80" width="20" height="20"/><rect x="60" y="80" width="20" height="20"/><rect x="100" y="80" width="20" height="20"/>
    <rect x="20" y="100" width="20" height="20"/>
  </g>
</svg>

